HIERARCHY
ROOT Hips
{
 OFFSET 0.000000 0.000000 0.000000
 CHANNELS 6 Xposition Yposition Zposition Yrotation Xrotation Zrotation
 JOINT Chest
 {
  OFFSET 0.000000 9.585900 0.002600
  CHANNELS 3 Yrotation Xrotation Zrotation
  JOINT Chest2
  {
   OFFSET 0.000000 9.601200 -0.005300
   CHANNELS 3 Yrotation Xrotation Zrotation
   JOINT Chest3
   {
    OFFSET 0.000000 9.561800 0.000000
    CHANNELS 3 Yrotation Xrotation Zrotation
    JOINT Chest4
    {
     OFFSET 0.000000 9.552100 0.000000
     CHANNELS 3 Yrotation Xrotation Zrotation
     JOINT Neck
     {
      OFFSET 0.000000 14.453000 0.000000
      CHANNELS 3 Yrotation Xrotation Zrotation
      JOINT Head
      {
       OFFSET 0.000000 8.936500 -0.011300
       CHANNELS 3 Yrotation Xrotation Zrotation
       End Site
       {
        OFFSET 0.000000 17.073600 -0.006000
       }
      }
     }
     JOINT RightCollar
     {
      OFFSET -2.921100 9.558500 0.000000
      CHANNELS 3 Yrotation Xrotation Zrotation
      JOINT RightShoulder
      {
       OFFSET -13.519700 0.000000 0.000000
       CHANNELS 3 Yrotation Xrotation Zrotation
       JOINT RightElbow
       {
        OFFSET 0.000000 -29.696600 0.000000
        CHANNELS 3 Yrotation Xrotation Zrotation
        JOINT RightWrist
        {
         OFFSET 0.000000 -24.004700 0.000000
         CHANNELS 3 Yrotation Xrotation Zrotation
         End Site
         {
          OFFSET 0.000000 -17.728500 0.000000
         }
        }
       }
      }
     }
     JOINT LeftCollar
     {
      OFFSET 2.921100 9.558500 0.000000
      CHANNELS 3 Yrotation Xrotation Zrotation
      JOINT LeftShoulder
      {
       OFFSET 13.519700 0.000000 0.000000
       CHANNELS 3 Yrotation Xrotation Zrotation
       JOINT LeftElbow
       {
        OFFSET 0.000000 -29.696600 0.000000
        CHANNELS 3 Yrotation Xrotation Zrotation
        JOINT LeftWrist
        {
         OFFSET 0.000000 -24.004700 0.000000
         CHANNELS 3 Yrotation Xrotation Zrotation
         End Site
         {
          OFFSET 0.000000 -17.728500 0.000000
         }
        }
       }
      }
     }
    }
   }
  }
 }
 JOINT RightHip
 {
  OFFSET -7.771700 -0.012900 -0.001300
  CHANNELS 3 Yrotation Xrotation Zrotation
  JOINT RightKnee
  {
   OFFSET 0.000000 -40.869800 0.001200
   CHANNELS 3 Yrotation Xrotation Zrotation
   JOINT RightAnkle
   {
    OFFSET 0.000000 -39.717900 0.002100
    CHANNELS 3 Yrotation Xrotation Zrotation
    JOINT RightToe
    {
     OFFSET 0.000000 -4.965400 11.033500
     CHANNELS 3 Yrotation Xrotation Zrotation
     End Site
     {
      OFFSET 0.000000 -1.423100 5.872300
     }
    }
   }
  }
 }
 JOINT LeftHip
 {
  OFFSET 7.771700 -0.012900 -0.001300
  CHANNELS 3 Yrotation Xrotation Zrotation
  JOINT LeftKnee
  {
   OFFSET 0.000000 -40.869800 0.001200
   CHANNELS 3 Yrotation Xrotation Zrotation
   JOINT LeftAnkle
   {
    OFFSET 0.000000 -39.717900 0.002100
    CHANNELS 3 Yrotation Xrotation Zrotation
    JOINT LeftToe
    {
     OFFSET 0.000000 -4.965400 11.033500
     CHANNELS 3 Yrotation Xrotation Zrotation
     End Site
     {
      OFFSET 0.000000 -1.423100 5.872300
     }
    }
   }
  }
 }
}
MOTION
Frames: 16
Frame Time: 0.008333
0.000000 85.388000 0.000000 0.000000 -5.767877 0.000000 0.000000 11.653817 0.000000 0.000000 -5.885947 0.000000 0.000000 -0.000000 0.000000 0.000000 -0.000000 0.000000 0.000000 12.528835 0.000000 0.000000 0.711642 0.000000 0.000000 -0.000000 0.000000 0.000000 0.000000 -90.000000 0.000000 -2.309062 0.000000 0.000000 2.309062 0.000000 0.000000 -0.000000 0.000000 0.000000 -0.000000 90.000000 0.000000 -2.309062 0.000000 0.000000 2.309062 0.000000 0.000000 8.520406 0.000000 0.000000 1.905762 0.000000 -0.000000 -4.658285 0.000000 0.000000 -0.000000 0.000000 0.000000 8.520406 0.000000 0.000000 1.905762 0.000000 -0.000000 -4.658285 0.000000 0.000000 -0.000000 0.000000
-213.015572 57.544363 131.298771 178.040027 -29.681488 -1.369440 1.339637 20.300678 2.175051 0.109510 2.560260 0.284016 0.207045 4.227278 0.455377 1.065897 17.396307 2.055423 0.355506 14.639415 -1.468714 1.237524 -8.558022 -2.903251 3.158341 -2.167212 -0.757649 13.416862 -17.487059 -20.112297 126.470475 -60.961779 -90.332143 17.529743 -10.136158 -40.671980 -6.612776 -3.527464 -1.362677 0.337746 -9.746702 -1.649104 27.462332 -69.900541 -63.854330 -5.032495 -1.209815 7.465316 2.769792 -46.671978 -2.182829 -14.911763 68.329991 -21.477923 -4.604913 26.664683 -7.636842 -2.130153 -15.929261 17.148979 -6.329566 -43.913671 1.469671 32.153083 70.318287 34.507516 -14.824472 2.402884 -4.574138 0.130294 0.263153 0.049716
-213.012439 57.544288 131.300299 178.054051 -29.674669 -1.378799 1.321610 20.286289 2.180444 0.106758 2.553772 0.282732 0.205999 4.224235 0.457008 1.064700 17.400100 2.052817 0.329902 14.630972 -1.479771 1.212810 -8.542450 -2.930618 3.157665 -2.108658 -0.751623 13.342042 -17.557657 -20.036901 126.410763 -60.583922 -90.604212 17.508669 -10.290144 -40.503404 -6.619004 -3.544599 -1.318070 0.358569 -9.713751 -1.719475 28.312881 -69.819833 -64.667333 -5.053609 -1.120381 7.308437 2.748422 -46.676688 -2.174843 -14.893680 68.331941 -21.464380 -4.606182 26.657597 -7.629680 -2.128868 -15.927730 17.141899 -6.365535 -43.921729 1.500588 32.141984 70.322944 34.479188 -14.836780 2.405458 -4.577832 0.128358 0.262621 0.054233
-213.008970 57.545084 131.300595 178.067795 -29.678102 -1.385746 1.299101 20.279505 2.180075 0.111616 2.546583 0.283337 0.193351 4.210717 0.459545 1.040155 17.367430 2.060016 0.328017 14.676694 -1.512203 1.186050 -8.516581 -2.959114 3.187871 -2.019474 -0.767555 13.255774 -17.624143 -19.951089 126.383027 -60.196902 -90.920091 17.475168 -10.456825 -40.320614 -6.593292 -3.515457 -1.308185 0.377957 -9.685586 -1.834028 29.088143 -69.799400 -65.392009 -5.079130 -1.021836 7.121337 2.732125 -46.670381 -2.172925 -14.882505 68.333484 -21.456252 -4.597324 26.652106 -7.617642 -2.141144 -15.924933 17.136657 -6.399550 -43.918225 1.528050 32.129784 70.328634 34.448292 -14.841864 2.405381 -4.584269 0.134876 0.262944 0.060676
-213.005308 57.545610 131.301664 178.085878 -29.678307 -1.392373 1.280483 20.247063 2.183068 0.110872 2.558500 0.280341 0.190772 4.220556 0.459058 1.029749 17.343101 2.063499 0.308282 14.695713 -1.530917 1.155523 -8.481379 -2.986313 3.180882 -1.921871 -0.755394 13.186571 -17.743528 -19.892400 126.386362 -59.794977 -91.280416 17.427710 -10.647850 -40.119779 -6.585149 -3.493312 -1.307471 0.398718 -9.759355 -1.959128 29.719869 -69.781817 -65.970768 -5.115582 -0.915330 6.909475 2.707515 -46.666226 -2.169078 -14.873872 68.331411 -21.455142 -4.585757 26.647861 -7.602330 -2.142342 -15.930188 17.124804 -6.436685 -43.916611 1.554262 32.107896 70.327871 34.407655 -14.854683 2.411370 -4.594104 0.144728 0.262751 0.067955
-213.000516 57.546161 131.303072 178.092425 -29.679318 -1.396870 1.275384 20.238761 2.185603 0.109789 2.551718 0.280801 0.189022 4.207910 0.461513 1.018585 17.335559 2.063100 0.302768 14.725000 -1.543092 1.111383 -8.443614 -3.014799 3.166924 -1.820047 -0.739296 13.125527 -17.880884 -19.840350 126.415289 -59.379600 -91.690887 17.364541 -10.864987 -39.903535 -6.576145 -3.468338 -1.304484 0.427671 -9.856234 -2.038902 30.493058 -69.792906 -66.699011 -5.163457 -0.807254 6.671476 2.691593 -46.663028 -2.161603 -14.862694 68.330490 -21.446207 -4.578432 26.642803 -7.599071 -2.148283 -15.927908 17.121324 -6.461732 -43.913666 1.578577 32.075203 70.331824 34.361551 -14.846594 2.413908 -4.599683 0.148447 0.262840 0.070458
-212.995557 57.546805 131.304587 178.106806 -29.682463 -1.403847 1.262481 20.233430 2.186024 0.109514 2.555344 0.280518 0.182244 4.155321 0.464479 1.017854 17.374953 2.061298 0.293722 14.737840 -1.552166 1.069187 -8.396542 -3.042905 3.160662 -1.774957 -0.733578 13.050524 -17.992021 -19.771646 126.467718 -58.956317 -92.160088 17.294741 -11.105297 -39.694634 -6.574912 -3.474972 -1.284663 0.467112 -9.956139 -2.100295 31.398242 -69.849072 -67.558333 -5.220872 -0.706271 6.411303 2.669372 -46.655218 -2.156491 -14.842592 68.328231 -21.426383 -4.580008 26.635446 -7.601319 -2.150094 -15.923899 17.118304 -6.499105 -43.909597 1.609682 32.036774 70.337000 34.301924 -14.850469 2.418859 -4.602642 0.152100 0.262634 0.072605
-212.990538 57.547800 131.305837 178.120872 -29.690902 -1.409607 1.249022 20.192556 2.185837 0.107697 2.579642 0.282358 0.179271 4.145392 0.460158 1.004325 17.355463 2.060737 0.250580 14.769143 -1.581742 1.070099 -8.322949 -3.059354 3.145547 -1.651593 -0.714300 13.008764 -18.146694 -19.730012 126.537649 -58.523152 -92.689248 17.216512 -11.367622 -39.505693 -6.566910 -3.473029 -1.263806 0.517336 -10.055216 -2.156653 32.406499 -69.944538 -68.523547 -5.291225 -0.615626 6.133974 2.653189 -46.642935 -2.154542 -14.834010 68.326047 -21.418231 -4.575340 26.630866 -7.596946 -2.155326 -15.923599 17.113961 -6.542431 -43.901100 1.646350 31.995551 70.347744 34.233726 -14.854947 2.425279 -4.607114 0.158373 0.259714 0.076456
-212.985764 57.550141 131.305035 178.138054 -29.717306 -1.414799 1.232795 20.190683 2.179790 0.105242 2.552753 0.281344 0.180052 4.173975 0.461252 0.993931 17.324506 2.059176 0.236673 14.817446 -1.595046 1.042028 -8.256016 -3.076731 3.132230 -1.525937 -0.690940 12.977306 -18.301571 -19.695275 126.622138 -58.081787 -93.285059 17.115285 -11.643175 -39.339048 -6.563785 -3.441852 -1.260431 0.570424 -10.201431 -2.187505 33.560135 -70.085208 -69.633933 -5.377282 -0.537816 5.844542 2.636511 -46.611853 -2.154609 -14.814071 68.328160 -21.398054 -4.577714 26.625574 -7.596666 -2.158127 -15.931388 17.111597 -6.564652 -43.874723 1.654340 31.956868 70.354240 34.185307 -14.842015 2.438301 -4.609825 0.154477 0.252578 0.076891
-212.980706 57.551338 131.306637 178.146412 -29.732071 -1.418623 1.223471 20.175797 2.176829 0.105793 2.549837 0.280482 0.180588 4.197966 0.463155 0.987423 17.285177 2.058297 0.219157 14.854980 -1.606380 1.012555 -8.186565 -3.090672 3.123007 -1.423368 -0.676692 12.954477 -18.441086 -19.659447 126.718241 -57.652127 -93.952045 16.985007 -11.927915 -39.225457 -6.562679 -3.407327 -1.262328 0.623070 -10.378857 -2.208679 34.910995 -70.286397 -70.930715 -5.474630 -0.478254 5.563726 2.621215 -46.589536 -2.147767 -14.793150 68.323916 -21.376305 -4.586051 26.609394 -7.603992 -2.154828 -15.920211 17.110747 -6.583284 -43.859405 1.667951 31.908275 70.360496 34.125735 -14.821594 2.448900 -4.608370 0.145441 0.252818 0.074061
-212.973768 57.552460 131.308940 178.147266 -29.748034 -1.431714 1.222247 20.161724 2.187022 0.109600 2.571112 0.281885 0.178196 4.166626 0.462060 0.980649 17.276840 2.058564 0.209575 14.894421 -1.614372 0.976446 -8.121848 -3.099517 3.121561 -1.320099 -0.667928 12.952737 -18.535822 -19.652439 126.865881 -57.260979 -94.760792 16.827076 -12.232931 -39.201065 -6.560224 -3.372092 -1.267988 0.682644 -10.573548 -2.224456 36.500358 -70.568779 -72.446099 -5.579604 -0.446926 5.319682 2.584717 -46.564558 -2.110258 -14.773123 68.309347 -21.356786 -4.607768 26.599163 -7.631284 -2.141081 -15.911073 17.114702 -6.614669 -43.840379 1.707295 31.873312 70.365632 34.073681 -14.810021 2.452609 -4.608496 0.135303 0.261311 0.071816
-212.969509 57.555462 131.308218 178.137104 -29.790110 -1.424756 1.225460 20.181302 2.181997 0.110538 2.560667 0.282189 0.165355 4.124145 0.459852 0.991894 17.328973 2.061326 0.208842 14.914821 -1.617166 0.929506 -8.072935 -3.101852 3.120167 -1.247349 -0.663095 12.949434 -18.689419 -19.616614 126.974719 -56.954514 -95.522747 16.652358 -12.554111 -39.275604 -6.598144 -3.412385 -1.275806 0.792904 -10.733286 -2.234436 38.364961 -70.956480 -74.208759 -5.690076 -0.449771 5.135895 2.577474 -46.515541 -2.092923 -14.757272 68.301350 -21.348910 -4.622107 26.591157 -7.641122 -2.135833 -15.907939 17.116007 -6.609496 -43.802014 1.710472 31.850627 70.370763 34.043322 -14.807020 2.498546 -4.619807 0.131842 0.227869 0.079261
-212.967862 57.555363 131.313261 178.152406 -29.797576 -1.417828 1.204598 20.181849 2.165109 0.096049 2.519247 0.279399 0.167005 4.138207 0.462360 0.980561 17.313016 2.062444 0.200696 14.955009 -1.629852 0.906955 -8.030976 -3.102230 3.139389 -1.163356 -0.667287 12.946262 -18.833833 -19.587922 127.141798 -56.737041 -96.369631 16.473390 -12.864508 -39.443096 -6.599543 -3.395350 -1.291675 0.906704 -10.939030 -2.254104 40.535766 -71.460549 -76.248318 -5.799969 -0.481364 5.019594 2.569086 -46.499803 -2.103250 -14.746190 68.292601 -21.343499 -4.625835 26.573970 -7.641982 -2.133649 -15.895432 17.114027 -6.606232 -43.802131 1.689502 31.780848 70.364932 33.975139 -14.788622 2.561325 -4.629267 0.123872 0.192549 0.085947
-212.963120 57.556331 131.317325 178.162867 -29.819538 -1.428101 1.182721 20.173954 2.164433 0.102224 2.533571 0.280168 0.165942 4.137323 0.462918 0.958974 17.282141 2.067442 0.179423 14.977905 -1.638251 0.903662 -7.986877 -3.112335 3.160893 -1.082514 -0.684283 12.928797 -18.970587 -19.577618 127.413276 -56.596491 -97.349411 16.292721 -13.148887 -39.681524 -6.597541 -3.384152 -1.310265 1.054350 -11.165043 -2.280529 43.024974 -72.074453 -78.587082 -5.897950 -0.536216 4.965508 2.555185 -46.469461 -2.095422 -14.695289 68.292538 -21.283440 -4.647998 26.550078 -7.654296 -2.137392 -15.877757 17.115801 -6.600429 -43.790889 1.681688 31.764025 70.365510 33.971677 -14.776673 2.604657 -4.630621 0.106828 0.177828 0.079823
-212.955502 57.557201 131.322532 178.179289 -29.841114 -1.459160 1.161957 20.166463 2.183177 0.100956 2.532170 0.280809 0.172205 4.151658 0.463107 0.948367 17.271111 2.071149 0.178527 14.996639 -1.645230 0.873491 -7.961296 -3.108807 3.169319 -1.017123 -0.707276 12.886286 -19.129227 -19.576264 127.775221 -56.523437 -98.424181 16.116486 -13.410045 -39.968747 -6.607200 -3.396065 -1.322736 1.244426 -11.414206 -2.306764 45.866632 -72.790364 -81.273380 -5.974505 -0.613191 4.979128 2.532235 -46.440484 -2.074701 -14.618785 68.298986 -21.184311 -4.677404 26.523804 -7.668574 -2.137028 -15.862836 17.113953 -6.610298 -43.792493 1.702501 31.751969 70.385360 33.977120 -14.772990 2.664197 -4.633967 0.106777 0.174796 0.067884
-212.947080 57.558714 131.327510 178.170111 -29.871493 -1.481703 1.152977 20.136641 2.204324 0.109626 2.561825 0.282388 0.169840 4.149605 0.463779 0.957537 17.295019 2.067910 0.155847 14.986202 -1.639400 0.858477 -7.917035 -3.109752 3.164125 -0.975590 -0.731722 12.818066 -19.299947 -19.583355 128.235667 -56.496230 -99.596936 15.959936 -13.640847 -40.301398 -6.627711 -3.428060 -1.329421 1.467586 -11.687847 -2.320364 49.162447 -73.591082 -84.402793 -6.030225 -0.719953 5.071224 2.531022 -46.404486 -2.054883 -14.334766 68.328245 -20.872835 -4.809160 26.507001 -7.712922 -2.096817 -15.871914 17.109153 -6.621358 -43.772581 1.742593 31.740567 70.397920 33.967956 -14.771492 2.709027 -4.641899 0.103068 0.162993 0.067165
